<?xml version="1.0" encoding="UTF-8" standalone="no"?><!DOCTYPE svg PUBLIC "-//W3C//DTD SVG 1.1//EN" "http://www.w3.org/Graphics/SVG/1.1/DTD/svg11.dtd"><svg width="100%" height="100%" viewBox="0 0 859 327" version="1.1" xmlns="http://www.w3.org/2000/svg" xmlns:xlink="http://www.w3.org/1999/xlink" xml:space="preserve" xmlns:serif="http://www.serif.com/" style="fill-rule:evenodd;clip-rule:evenodd;stroke-linejoin:round;stroke-miterlimit:2;"><rect id="Mesa-de-trabajo1" serif:id="Mesa de trabajo1" x="-110.921" y="-376.548" width="1080" height="1080" style="fill:none;"/><g id="Mesa-de-trabajo11" serif:id="Mesa de trabajo1"><g><g><path d="M148.484,326.722c-66.287,-7.037 -120.118,-56.276 -133.691,-125.779c-4.505,-23.074 -0.115,-55.746 7.99,-70.118c5.506,-11.465 16.172,-20.283 29.63,-22.911c13.092,-2.561 25.962,1.309 35.319,9.434l19.917,-21.265c-14.256,-9.453 -32.085,-13.525 -50.201,-9.982c-22.728,4.437 -40.547,19.82 -49.056,39.593c-10.272,22.227 -9.935,45.562 -5.266,69.454c14.257,72.978 74.903,125.095 145.349,131.757c-0,-0.068 0.009,-0.125 0.009,-0.183" style="fill:#27ffa8;fill-rule:nonzero;"/><path d="M155.84,138.895c-9.569,-38.14 -59.048,-59.982 -98.94,-52.195c-12.755,2.494 -23.257,8.549 -32.143,16.769c1.839,-0.519 3.707,-1.097 5.632,-1.357c40.103,-5.371 61.464,11.783 81.439,49.98c6.084,10.888 17.337,17.886 29.024,14.267c11.676,-3.629 18.376,-13.968 14.988,-27.464" style="fill:#44a600;fill-rule:nonzero;"/><path d="M315.916,102.372c24.076,61.57 5.632,131.545 -49.066,175.788c-18.28,14.786 -49.2,26.183 -65.69,25.76c-12.716,0.5 -25.5,-4.804 -34.126,-15.451c-8.384,-10.386 -10.983,-23.565 -8.201,-35.636l-28.109,-7.644c-1.685,17.02 3.071,34.684 14.68,49.037c14.555,18.011 36.494,26.54 57.96,24.807c24.442,-1.328 44.898,-12.543 63.833,-27.859c57.45,-46.466 75.259,-123.776 48.883,-188.898c-0.058,0.038 -0.116,0.067 -0.164,0.096" style="fill:#27ffa8;fill-rule:nonzero;"/><path d="M145.56,183.755c-29.226,26.308 -25.356,80.264 0.202,111.868c8.173,10.098 18.435,16.548 29.861,20.552c-1.328,-1.386 -2.705,-2.753 -3.831,-4.341c-23.527,-32.923 -18.358,-59.828 6.036,-95.369c6.777,-10.464 7.691,-23.691 -0.982,-32.316c-8.674,-8.615 -20.938,-9.713 -31.286,-0.394" style="fill:#44a600;fill-rule:nonzero;"/><path d="M268.88,42.781c-15.094,-19.272 -36.013,-29.601 -59.414,-36.34c-71.505,-20.591 -145.59,9.684 -183.604,69.435l0.173,0.058c36.474,-55.852 104.87,-81.372 172.967,-61.753c22.583,6.498 49.662,25.308 58.75,39.073c7.71,10.127 10.695,23.643 6.902,36.812c-3.697,12.822 -13.015,22.506 -24.499,27.136l9.847,27.426c14.912,-8.375 26.665,-22.401 31.767,-40.132c6.412,-22.257 0.848,-45.119 -12.889,-61.715" style="fill:#27ffa8;fill-rule:nonzero;"/><path d="M190.788,168.939c38.303,8.865 80.303,-25.222 91.547,-64.285c3.6,-12.486 2.993,-24.586 -0.27,-36.234c-0.375,1.877 -0.712,3.783 -1.357,5.631c-13.506,38.13 -38.506,49.326 -81.613,49.701c-12.456,0.453 -23.825,7.278 -25.924,19.32c-2.089,12.043 4.043,22.728 17.617,25.867" style="fill:#44a600;fill-rule:nonzero;"/></g><g><path d="M408.198,17.382c0.061,-0.365 0.259,-0.761 0.594,-1.187c0.335,-0.427 0.746,-0.822 1.233,-1.188c0.487,-0.365 1.005,-0.654 1.553,-0.867c0.548,-0.214 1.066,-0.32 1.553,-0.32l23.384,-0c1.035,-0 1.918,0.32 2.649,0.959c0.731,0.639 1.279,1.203 1.644,1.69l2.284,5.206l47.955,123.68c0.487,1.218 0.396,2.207 -0.274,2.969c-0.67,0.761 -1.827,1.141 -3.471,1.141l-26.216,0c-1.4,0 -2.481,-0.258 -3.242,-0.776c-0.762,-0.518 -1.355,-1.385 -1.782,-2.603c-1.218,-3.106 -2.405,-6.196 -3.562,-9.272c-1.157,-3.075 -2.314,-6.165 -3.471,-9.271l-48.504,-0c-1.157,3.106 -2.329,6.196 -3.516,9.271c-1.188,3.076 -2.36,6.166 -3.517,9.272c-0.792,2.253 -2.345,3.379 -4.659,3.379l-26.946,0c-1.157,0 -2.116,-0.304 -2.877,-0.913c-0.762,-0.609 -0.899,-1.522 -0.411,-2.74l49.599,-128.43Zm16.625,39.095c-1.157,3.106 -2.329,6.455 -3.517,10.048c-1.187,3.593 -2.36,7.216 -3.517,10.87c-1.157,3.654 -2.329,7.262 -3.516,10.824c-1.188,3.563 -2.36,6.897 -3.517,10.003l28.042,-0l-13.975,-41.745Z" style="fill:#155f52;fill-rule:nonzero;"/><path d="M520.277,105.62c1.035,0.853 2.36,1.995 3.974,3.426c1.613,1.431 3.455,2.847 5.526,4.247c3.106,2.071 6.181,3.684 9.226,4.841c3.044,1.157 6.241,1.736 9.591,1.736c3.105,-0 5.709,-0.35 7.81,-1.05c2.1,-0.7 3.76,-1.628 4.978,-2.784c1.218,-1.156 2.086,-2.494 2.603,-4.015c0.518,-1.521 0.777,-3.134 0.777,-4.838c-0,-1.886 -0.716,-3.574 -2.147,-5.064c-1.431,-1.491 -3.182,-2.814 -5.252,-3.97c-2.071,-1.156 -4.233,-2.145 -6.486,-2.967c-2.253,-0.821 -4.202,-1.506 -5.846,-2.053c-7.307,-2.556 -13.701,-5.309 -19.182,-8.26c-5.481,-2.951 -10.048,-6.237 -13.701,-9.857c-3.654,-3.62 -6.395,-7.605 -8.221,-11.956c-1.827,-4.35 -2.741,-9.203 -2.741,-14.557c0,-5.658 1.142,-10.8 3.426,-15.424c2.283,-4.624 5.541,-8.579 9.773,-11.865c4.233,-3.285 9.333,-5.826 15.301,-7.621c5.967,-1.795 12.635,-2.692 20.004,-2.692c5.541,-0 10.855,0.624 15.939,1.872c5.085,1.249 10.094,3.243 15.026,5.983c2.071,1.218 4.035,2.482 5.892,3.791c1.857,1.309 3.486,2.573 4.887,3.791c1.401,1.218 2.512,2.375 3.334,3.471c0.822,1.096 1.233,2.04 1.233,2.832c0,0.791 -0.198,1.522 -0.594,2.192c-0.395,0.67 -0.989,1.431 -1.781,2.283l-13.975,14.89c-1.036,1.035 -2.071,1.552 -3.106,1.552c-0.853,0 -1.629,-0.243 -2.329,-0.73c-0.701,-0.488 -1.477,-1.096 -2.33,-1.827l-0.822,-0.731c-1.218,-1.035 -2.573,-2.101 -4.065,-3.197c-1.491,-1.096 -3.09,-2.086 -4.795,-2.969c-1.705,-0.883 -3.502,-1.613 -5.389,-2.192c-1.888,-0.578 -3.806,-0.868 -5.755,-0.868c-2.01,0 -3.897,0.168 -5.663,0.503c-1.766,0.335 -3.319,0.867 -4.659,1.598c-1.34,0.731 -2.405,1.69 -3.197,2.878c-0.792,1.187 -1.187,2.633 -1.187,4.338c-0,1.705 0.426,3.182 1.278,4.431c0.853,1.248 2.132,2.405 3.837,3.471c1.705,1.065 3.821,2.07 6.348,3.014c2.527,0.944 5.466,1.964 8.815,3.06c6.455,2.131 12.407,4.369 17.858,6.714c5.45,2.344 10.154,5.115 14.112,8.312c3.959,3.197 7.049,7.018 9.272,11.464c2.222,4.445 3.334,9.834 3.334,16.168c-0,6.698 -1.37,12.772 -4.111,18.223c-2.74,5.45 -6.5,10.093 -11.281,13.93c-4.78,3.836 -10.398,6.805 -16.853,8.906c-6.455,2.1 -13.397,3.151 -20.826,3.151c-7.003,-0 -13.884,-1.252 -20.644,-3.756c-6.759,-2.504 -13.062,-5.863 -18.908,-10.077c-2.436,-1.772 -4.491,-3.512 -6.166,-5.222c-1.674,-1.71 -2.999,-3.084 -3.973,-4.122l-0.274,-0.276c-0.061,-0.121 -0.122,-0.198 -0.183,-0.228c-0.061,-0.03 -0.122,-0.077 -0.182,-0.138c-0.061,-0.122 -0.122,-0.198 -0.183,-0.229c-0.061,-0.03 -0.122,-0.076 -0.183,-0.137c-1.4,-1.527 -2.101,-2.749 -2.101,-3.665c0,-1.038 0.701,-2.198 2.101,-3.481l15.803,-15.072c1.278,-0.913 2.314,-1.37 3.105,-1.37c0.548,0 1.127,0.183 1.736,0.548c0.609,0.366 1.34,0.914 2.192,1.644Z" style="fill:#155f52;fill-rule:nonzero;"/><path d="M623.039,18.022c-0,-1.279 0.349,-2.299 1.047,-3.06c0.699,-0.762 1.686,-1.142 2.962,-1.142l90.623,-0c1.34,-0 2.375,0.394 3.106,1.184c0.731,0.789 1.096,1.852 1.096,3.187l-0,22.588c-0,1.032 -0.365,2.019 -1.096,2.96c-0.731,0.941 -1.797,1.412 -3.197,1.412l-59.191,-0l-0,22.653l45.672,0c1.157,0 2.116,0.274 2.877,0.822c0.761,0.548 1.142,1.462 1.142,2.74l-0,19.731c-0,0.852 -0.335,1.674 -1.005,2.466c-0.67,0.792 -1.644,1.187 -2.923,1.187l-45.763,0l-0,23.384l61.383,0c2.74,0 4.11,1.397 4.11,4.189l0,22.953c0,0.607 -0.243,1.154 -0.73,1.639c-0.244,1.7 -1.492,2.55 -3.745,2.55l-92.359,0c-1.215,0 -2.187,-0.319 -2.916,-0.959c-0.729,-0.639 -1.093,-1.629 -1.093,-2.968l-0,-127.516Z" style="fill:#155f52;fill-rule:nonzero;"/><path d="M746.536,18.022c-0,-1.279 0.335,-2.299 1.005,-3.06c0.669,-0.762 1.674,-1.142 3.014,-1.142l59.008,-0c6.272,-0 12.149,1.172 17.629,3.517c5.481,2.344 10.261,5.526 14.341,9.545c4.08,4.019 7.293,8.723 9.637,14.113c2.345,5.389 3.517,11.128 3.517,17.218c-0,4.141 -0.563,8.084 -1.69,11.829c-1.127,3.745 -2.695,7.247 -4.704,10.504c-2.01,3.258 -4.4,6.212 -7.171,8.861c-2.771,2.649 -5.8,4.917 -9.088,6.805l23.475,44.21c0.426,0.853 0.974,1.858 1.644,3.015c0.67,1.157 1.005,2.162 1.005,3.014c-0,0.974 -0.32,1.72 -0.959,2.238c-0.64,0.518 -1.507,0.776 -2.604,0.776l-31.33,0c-1.036,0 -1.964,-0.304 -2.786,-0.913c-0.823,-0.609 -1.355,-1.431 -1.599,-2.466l-22.197,-41.744l-14.797,-0l-0,41.196c-0,2.618 -1.401,3.927 -4.202,3.927l-27.129,0c-1.218,0 -2.192,-0.319 -2.923,-0.959c-0.731,-0.639 -1.096,-1.629 -1.096,-2.968l-0,-127.516Zm71.522,40.556c-0,-1.827 -0.335,-3.653 -1.005,-5.48c-0.67,-1.827 -1.614,-3.502 -2.831,-5.024c-1.218,-1.523 -2.68,-2.801 -4.385,-3.837c-1.705,-1.035 -3.593,-1.705 -5.663,-2.009c-1.705,-0.122 -3.304,-0.229 -4.796,-0.32c-1.492,-0.091 -3.121,-0.137 -4.887,-0.137l-12.605,0l-0,33.523l16.807,0c1.096,0 2.071,-0.03 2.923,-0.091c0.853,-0.061 1.796,-0.152 2.832,-0.274c2.131,-0.244 4.049,-0.868 5.754,-1.873c1.705,-1.004 3.137,-2.253 4.294,-3.745c1.157,-1.492 2.04,-3.166 2.649,-5.024c0.608,-1.857 0.913,-3.76 0.913,-5.709Z" style="fill:#155f52;fill-rule:nonzero;"/><path d="M472.87,188.218c1.035,0.609 1.796,1.401 2.283,2.375c0.487,0.974 0.396,2.131 -0.274,3.471l-15.437,21.922c-0.67,1.036 -1.385,1.629 -2.146,1.782c-0.762,0.152 -1.69,-0.107 -2.786,-0.777c-2.984,-2.253 -6.273,-3.988 -9.866,-5.206c-3.592,-1.218 -7.398,-1.827 -11.418,-1.827c-4.993,-0 -9.591,0.944 -13.792,2.831c-4.202,1.888 -7.826,4.476 -10.87,7.765c-3.045,3.288 -5.42,7.124 -7.125,11.509c-1.705,4.384 -2.558,9.073 -2.558,14.067c0,4.993 0.853,9.667 2.558,14.021c1.705,4.354 4.08,8.16 7.125,11.418c3.044,3.258 6.668,5.831 10.87,7.719c4.201,1.887 8.799,2.831 13.792,2.831c4.02,0 7.856,-0.624 11.51,-1.872c3.654,-1.249 6.972,-2.999 9.956,-5.252c1.096,-0.67 2.01,-0.944 2.741,-0.823c0.73,0.122 1.461,0.67 2.192,1.645l15.62,22.47c0.669,1.34 0.761,2.466 0.274,3.38c-0.488,0.913 -1.249,1.675 -2.284,2.284c-5.724,3.836 -11.89,6.805 -18.497,8.906c-6.607,2.1 -13.565,3.151 -20.872,3.151c-6.455,-0 -12.651,-0.822 -18.589,-2.466c-5.937,-1.645 -11.494,-3.989 -16.67,-7.034c-5.176,-3.045 -9.88,-6.683 -14.112,-10.915c-4.233,-4.233 -7.871,-8.922 -10.916,-14.067c-3.045,-5.146 -5.389,-10.688 -7.034,-16.625c-1.644,-5.937 -2.466,-12.133 -2.466,-18.588c0,-6.455 0.822,-12.652 2.466,-18.589c1.645,-5.937 3.989,-11.509 7.034,-16.716c3.045,-5.206 6.683,-9.941 10.916,-14.204c4.232,-4.262 8.936,-7.901 14.112,-10.915c5.176,-3.015 10.733,-5.359 16.67,-7.034c5.938,-1.674 12.134,-2.512 18.589,-2.512c7.307,0 14.204,1.02 20.689,3.06c6.486,2.04 12.59,4.978 18.315,8.815Z" style="fill:#155f52;fill-rule:nonzero;"/><path d="M536.902,181.915c0.061,-0.365 0.258,-0.761 0.593,-1.187c0.335,-0.427 0.746,-0.822 1.234,-1.188c0.487,-0.365 1.004,-0.654 1.552,-0.868c0.548,-0.213 1.066,-0.319 1.553,-0.319l23.384,-0c1.035,-0 1.918,0.319 2.649,0.959c0.731,0.639 1.279,1.203 1.644,1.69l2.284,5.206l47.956,123.68c0.487,1.218 0.395,2.207 -0.275,2.969c-0.669,0.761 -1.826,1.141 -3.471,1.141l-26.215,0c-1.401,0 -2.482,-0.258 -3.243,-0.776c-0.761,-0.518 -1.355,-1.385 -1.781,-2.603c-1.218,-3.106 -2.406,-6.197 -3.563,-9.272c-1.157,-3.075 -2.314,-6.165 -3.471,-9.271l-48.503,-0c-1.157,3.106 -2.329,6.196 -3.517,9.271c-1.187,3.075 -2.36,6.166 -3.517,9.272c-0.791,2.253 -2.344,3.379 -4.658,3.379l-26.947,0c-1.157,0 -2.116,-0.304 -2.877,-0.913c-0.761,-0.609 -0.898,-1.523 -0.411,-2.74l49.6,-128.43Zm16.624,39.095c-1.157,3.106 -2.329,6.455 -3.516,10.048c-1.188,3.593 -2.36,7.216 -3.517,10.87c-1.157,3.654 -2.329,7.262 -3.517,10.824c-1.187,3.563 -2.36,6.897 -3.517,10.002l28.043,0l-13.976,-41.744Z" style="fill:#155f52;fill-rule:nonzero;"/><path d="M612.626,182.36c-0,-1.214 0.411,-2.185 1.233,-2.914c0.822,-0.729 1.842,-1.093 3.06,-1.093l98.286,-0c1.096,-0 2.07,0.334 2.923,1.002c0.852,0.668 1.34,1.67 1.461,3.005l0,22.678c0,1.093 -0.38,2.141 -1.141,3.143c-0.762,1.002 -1.843,1.503 -3.243,1.503l-31.514,-0l0,100.017c0,1.097 -0.395,2.087 -1.184,2.971c-0.79,0.884 -1.823,1.326 -3.098,1.326l-26.786,0c-1.033,0 -2.004,-0.411 -2.915,-1.234c-0.911,-0.823 -1.367,-1.844 -1.367,-3.063l0,-100.017l-31.422,-0c-1.218,-0 -2.238,-0.395 -3.06,-1.184c-0.822,-0.789 -1.233,-1.943 -1.233,-3.462l-0,-22.678Z" style="fill:#155f52;fill-rule:nonzero;"/><path d="M741.695,182.555c-0,-1.279 0.349,-2.299 1.047,-3.06c0.699,-0.762 1.686,-1.142 2.962,-1.142l90.623,-0c1.339,-0 2.375,0.394 3.105,1.184c0.731,0.789 1.097,1.852 1.097,3.187l-0,22.588c-0,1.032 -0.366,2.019 -1.097,2.96c-0.73,0.941 -1.796,1.412 -3.197,1.412l-59.19,-0l-0,22.653l45.671,-0c1.157,-0 2.117,0.274 2.878,0.822c0.761,0.548 1.142,1.462 1.142,2.74l-0,19.731c-0,0.852 -0.335,1.674 -1.005,2.466c-0.67,0.792 -1.644,1.187 -2.923,1.187l-45.763,0l-0,23.384l61.383,0c2.74,0 4.11,1.397 4.11,4.189l0,22.953c0,0.607 -0.243,1.154 -0.731,1.639c-0.243,1.7 -1.492,2.55 -3.745,2.55l-92.358,0c-1.215,0 -2.187,-0.319 -2.916,-0.959c-0.729,-0.639 -1.093,-1.629 -1.093,-2.968l-0,-127.516Z" style="fill:#155f52;fill-rule:nonzero;"/></g></g></g></svg>