<svg width="63" height="24" viewBox="0 0 63 24" fill="none" xmlns="http://www.w3.org/2000/svg">
<g id="Mesa-de-trabajo11">
<g id="Group">
<g id="Group_2">
<path id="Vector" d="M11.0148 23.9347C6.18169 23.4216 2.25693 19.8313 1.26716 14.7639C0.938756 13.0815 1.25896 10.6994 1.84984 9.65133C2.25116 8.81558 3.02888 8.17275 4.01015 7.98105C4.96468 7.79422 5.90311 8.07644 6.58544 8.66885L8.03759 7.11827C6.998 6.42925 5.69835 6.13214 4.37714 6.39067C2.72022 6.71422 1.42088 7.83584 0.800528 9.27736C0.0516673 10.8981 0.0762749 12.5994 0.416528 14.3414C1.45612 19.6624 5.87789 23.4623 11.0142 23.948C11.0142 23.9429 11.0148 23.9389 11.0148 23.9347Z" fill="#C5C5C5"/>
<path id="Vector_2" d="M11.5513 10.2398C10.8535 7.45911 7.24589 5.8663 4.33733 6.4344C3.40741 6.61607 2.64153 7.05749 1.99384 7.65688C2.12781 7.6189 2.26391 7.57698 2.40427 7.55784C5.32832 7.16625 6.88589 8.41698 8.34229 11.2022C8.78583 11.996 9.60639 12.5061 10.4582 12.2424C11.3098 11.9778 11.7983 11.2238 11.5513 10.2398Z" fill="white"/>
<path id="Vector_3" d="M23.2226 7.577C24.9779 12.0662 23.633 17.1679 19.6451 20.3939C18.3123 21.4718 16.0578 22.303 14.8554 22.272C13.9282 22.3084 12.9962 21.9217 12.3673 21.1455C11.7561 20.3881 11.5665 19.4272 11.7694 18.5471L9.72002 17.99C9.59698 19.231 9.94391 20.5188 10.7903 21.5653C11.8515 22.8784 13.451 23.5002 15.0164 23.3739C16.7982 23.2772 18.2898 22.4594 19.6703 21.3427C23.8591 17.9547 25.1578 12.3181 23.2344 7.57001C23.2302 7.57274 23.2259 7.57487 23.2226 7.577Z" fill="#C5C5C5"/>
<path id="Vector_4" d="M10.8015 13.5108C8.67068 15.4289 8.95291 19.3628 10.8164 21.6671C11.4122 22.4032 12.1604 22.8735 12.9937 23.1654C12.8968 23.0646 12.7963 22.9649 12.7142 22.8492C10.999 20.4486 11.3757 18.487 13.1544 15.8956C13.6484 15.1327 13.7152 14.1682 13.0827 13.5393C12.4502 12.9111 11.5562 12.8312 10.8015 13.5108Z" fill="white"/>
<path id="Vector_5" d="M19.793 3.23209C18.6927 1.82703 17.1673 1.07391 15.4612 0.58237C10.2477 -0.918693 4.84589 1.2887 2.07434 5.64515L2.0868 5.64941C4.74624 1.577 9.73307 -0.283756 14.698 1.14683C16.3449 1.62045 18.319 2.99209 18.9816 3.99553C19.5439 4.73407 19.7614 5.71958 19.485 6.67958C19.2155 7.61467 18.5359 8.3207 17.6986 8.65822L18.4168 10.6578C19.5038 10.0472 20.3608 9.0246 20.733 7.73163C21.2002 6.10905 20.7946 4.44212 19.793 3.23209Z" fill="#C5C5C5"/>
<path id="Vector_6" d="M14.0993 12.4305C16.8921 13.077 19.9544 10.5916 20.774 7.7432C21.0365 6.83302 20.9924 5.9508 20.7546 5.10138C20.7272 5.23839 20.7026 5.37723 20.6555 5.51211C19.6706 8.29216 17.8481 9.10847 14.7051 9.13581C13.7967 9.16892 12.9679 9.66654 12.8148 10.5445C12.6626 11.4225 13.1095 12.2017 14.0993 12.4305Z" fill="white"/>
</g>
<g id="Group_3">
<path id="Vector_7" d="M29.9511 1.38011C29.9553 1.35337 29.9699 1.32451 29.9942 1.29353C30.0188 1.26254 30.0486 1.23368 30.0841 1.20694C30.1197 1.18021 30.1573 1.15925 30.1974 1.14375C30.2372 1.12826 30.2752 1.12036 30.3105 1.12036H32.0157C32.091 1.12036 32.1554 1.14375 32.2086 1.19023C32.262 1.23702 32.3018 1.27803 32.3286 1.31357L32.4951 1.69332L35.9915 10.7109C36.027 10.7997 36.0203 10.8717 35.9717 10.9272C35.9228 10.9828 35.8384 11.0105 35.7187 11.0105H33.8072C33.7051 11.0105 33.6261 10.9917 33.5708 10.954C33.5152 10.9163 33.4718 10.8528 33.4408 10.7641C33.3521 10.5378 33.2655 10.3124 33.181 10.0882C33.0966 9.86395 33.0124 9.63854 32.928 9.41221H29.3915C29.307 9.63854 29.2216 9.86395 29.1351 10.0882C29.0485 10.3124 28.9631 10.5378 28.8787 10.7641C28.8209 10.9285 28.7076 11.0105 28.539 11.0105H26.5744C26.4899 11.0105 26.42 10.9883 26.3644 10.944C26.3091 10.8996 26.2991 10.8331 26.3347 10.7441L29.9511 1.38011ZM31.1632 4.23064C31.0788 4.45697 30.9934 4.70122 30.9068 4.96309C30.8202 5.22527 30.7346 5.48927 30.6501 5.7557C30.5659 6.02213 30.4803 6.28522 30.3937 6.54497C30.3071 6.80471 30.2217 7.04775 30.1373 7.27438H32.1821L31.1632 4.23064Z" fill="white"/>
<path id="Vector_8" d="M38.1229 7.81364C38.1983 7.87592 38.2949 7.95916 38.4124 8.06336C38.53 8.16787 38.6646 8.27116 38.8156 8.37323C39.0419 8.52422 39.2661 8.64179 39.4882 8.72625C39.7099 8.8104 39.9433 8.85263 40.1875 8.85263C40.4138 8.85263 40.6037 8.82711 40.7568 8.77607C40.91 8.72503 41.0309 8.65759 41.1199 8.57313C41.2086 8.48898 41.2718 8.39116 41.3094 8.28027C41.3474 8.16938 41.3663 8.05182 41.3663 7.92756C41.3663 7.79025 41.314 7.66721 41.2098 7.55845C41.1053 7.44969 40.9777 7.35339 40.8267 7.26893C40.6757 7.18478 40.5181 7.11247 40.354 7.05262C40.1896 6.99278 40.0475 6.94295 39.9278 6.90285C39.3949 6.71663 38.9286 6.51581 38.5291 6.30073C38.1293 6.08564 37.7963 5.84594 37.5299 5.58194C37.2638 5.31825 37.0639 5.02751 36.9305 4.71035C36.7974 4.39318 36.7309 4.03926 36.7309 3.64888C36.7309 3.23632 36.8142 2.86143 36.9806 2.52422C37.1471 2.18731 37.3847 1.8987 37.6933 1.65931C38.0017 1.41961 38.3735 1.2346 38.8089 1.10366C39.2439 0.972727 39.73 0.90741 40.2674 0.90741C40.6715 0.90741 41.0588 0.952675 41.4294 1.04381C41.8001 1.13495 42.1655 1.28017 42.5249 1.48007C42.6759 1.56878 42.8193 1.66113 42.9545 1.75652C43.09 1.85192 43.2088 1.94397 43.3109 2.03298C43.4129 2.12169 43.4941 2.20614 43.5539 2.28604C43.6141 2.36594 43.6438 2.4346 43.6438 2.49232C43.6438 2.55004 43.6295 2.60351 43.6007 2.65212C43.5718 2.70103 43.5284 2.75663 43.4707 2.8186L42.4517 3.90437C42.3764 3.97971 42.3007 4.01738 42.2254 4.01738C42.1631 4.01738 42.1066 3.99977 42.0556 3.96422C42.0045 3.92868 41.9477 3.88432 41.8857 3.83116L41.8256 3.77769C41.7369 3.70235 41.6382 3.62457 41.5294 3.54468C41.4206 3.46478 41.304 3.39247 41.1797 3.32837C41.0555 3.26397 40.9245 3.2105 40.7869 3.16827C40.6493 3.12635 40.5092 3.10508 40.3671 3.10508C40.2206 3.10508 40.083 3.11723 39.9542 3.14184C39.8254 3.16615 39.7124 3.20503 39.6146 3.25819C39.517 3.31166 39.4393 3.38154 39.3815 3.46812C39.3238 3.5547 39.295 3.66012 39.295 3.78437C39.295 3.90863 39.326 4.01647 39.3882 4.10731C39.4502 4.19845 39.5435 4.2829 39.668 4.36037C39.7923 4.43814 39.9466 4.51136 40.1307 4.58032C40.3151 4.64898 40.5293 4.72341 40.7735 4.80331C41.2441 4.95885 41.6783 5.12199 42.0756 5.29303C42.473 5.46376 42.816 5.66579 43.1046 5.89911C43.3932 6.13212 43.6183 6.4107 43.7805 6.73485C43.9425 7.059 44.0236 7.45182 44.0236 7.91359C44.0236 8.40209 43.9236 8.84503 43.7237 9.2424C43.5241 9.63976 43.2498 9.9782 42.9013 10.258C42.5529 10.5378 42.1431 10.7541 41.6725 10.9072C41.2019 11.0606 40.6958 11.1372 40.1541 11.1372C39.6434 11.1372 39.1418 11.0457 38.6488 10.8632C38.156 10.6806 37.6967 10.4357 37.2702 10.1286C37.0927 9.99946 36.943 9.87247 36.8208 9.74761C36.6987 9.62306 36.6021 9.5228 36.531 9.44716L36.511 9.42711C36.5067 9.4183 36.5022 9.41283 36.4976 9.4104C36.4933 9.40827 36.4888 9.40493 36.4845 9.40037C36.48 9.39156 36.4754 9.38609 36.4712 9.38366C36.4666 9.38154 36.4624 9.3782 36.4578 9.37364C36.3557 9.26245 36.3047 9.17344 36.3047 9.1066C36.3047 9.03095 36.3557 8.94619 36.4578 8.85263L37.6101 7.75379C37.7031 7.68726 37.7787 7.65384 37.8364 7.65384C37.8762 7.65384 37.9185 7.66721 37.9628 7.69394C38.0075 7.72037 38.0606 7.76047 38.1229 7.81364Z" fill="white"/>
<path id="Vector_9" d="M45.6151 1.42689C45.6151 1.33363 45.6406 1.2592 45.6917 1.2036C45.7424 1.14831 45.8144 1.12036 45.9077 1.12036H52.515C52.6128 1.12036 52.6881 1.14922 52.7413 1.20664C52.7948 1.26436 52.8215 1.34183 52.8215 1.43904V3.08593C52.8215 3.16127 52.7948 3.23327 52.7413 3.30193C52.6881 3.37059 52.6104 3.40492 52.5083 3.40492H48.1925V5.05636H51.5228C51.6069 5.05636 51.6771 5.07641 51.7324 5.11651C51.788 5.15631 51.8156 5.22284 51.8156 5.31611V6.75489C51.8156 6.81687 51.7913 6.87702 51.7424 6.93474C51.6935 6.99246 51.6224 7.02132 51.5294 7.02132H48.1925V8.72623H52.6681C52.868 8.72623 52.9679 8.828 52.9679 9.03155V10.7052C52.9679 10.7492 52.95 10.7893 52.9145 10.8246C52.8968 10.9485 52.8057 11.0105 52.6417 11.0105H45.9077C45.819 11.0105 45.7482 10.9871 45.695 10.9406C45.6418 10.8938 45.6151 10.8218 45.6151 10.724V1.42689Z" fill="white"/>
<path id="Vector_10" d="M54.6198 1.42689C54.6198 1.33363 54.6441 1.2592 54.693 1.2036C54.7419 1.14831 54.8151 1.12036 54.9126 1.12036H59.215C59.6725 1.12036 60.1009 1.20603 60.5004 1.37676C60.9002 1.5478 61.2486 1.7799 61.546 2.07276C61.8435 2.36593 62.0777 2.70892 62.2487 3.10173C62.4198 3.49484 62.5051 3.91317 62.5051 4.35732C62.5051 4.65899 62.4641 4.94669 62.3818 5.2198C62.2998 5.49261 62.1855 5.74811 62.0388 5.98568C61.8924 6.22294 61.718 6.43834 61.516 6.63155C61.3139 6.82477 61.0931 6.99003 60.8534 7.12765L62.565 10.3512C62.596 10.4132 62.6361 10.4867 62.685 10.5709C62.7339 10.6553 62.7582 10.7286 62.7582 10.7908C62.7582 10.8619 62.7348 10.9163 62.6883 10.954C62.6415 10.9917 62.5783 11.0105 62.4984 11.0105H60.2142C60.1385 11.0105 60.0708 10.9883 60.0109 10.944C59.9511 10.8996 59.9122 10.8394 59.8943 10.7641L58.276 7.72036H57.1972V10.724C57.1972 10.9151 57.0948 11.0105 56.8906 11.0105H54.9126C54.8239 11.0105 54.7528 10.9871 54.6996 10.9406C54.6462 10.8938 54.6198 10.8218 54.6198 10.724V1.42689ZM59.8344 4.38375C59.8344 4.25069 59.8101 4.11732 59.7612 3.98426C59.7123 3.85089 59.6437 3.72907 59.5546 3.61788C59.4659 3.50699 59.3593 3.41373 59.235 3.33808C59.1108 3.26274 58.9732 3.21383 58.8222 3.19165C58.6979 3.18284 58.5813 3.17494 58.4725 3.16826C58.3638 3.16158 58.245 3.15823 58.1162 3.15823H57.1972V5.60259H58.4224C58.5023 5.60259 58.5734 5.60046 58.6357 5.5959C58.6979 5.59165 58.7666 5.58497 58.8422 5.57585C58.9975 5.55823 59.1372 5.51266 59.2618 5.43945C59.386 5.36623 59.4902 5.27509 59.5747 5.16633C59.6591 5.05757 59.7235 4.93545 59.7679 4.79996C59.8123 4.66477 59.8344 4.52593 59.8344 4.38375Z" fill="white"/>
<path id="Vector_11" d="M34.6663 13.8361C34.7416 13.8805 34.7972 13.9382 34.8328 14.0093C34.8683 14.0804 34.8616 14.1645 34.8127 14.2623L33.6871 15.8606C33.6382 15.9362 33.5863 15.9794 33.5307 15.9906C33.4751 16.0016 33.4073 15.9827 33.3274 15.9338C33.1099 15.7698 32.8702 15.6431 32.6084 15.5544C32.3462 15.4654 32.0688 15.421 31.7757 15.421C31.4117 15.421 31.0766 15.49 30.7701 15.6276C30.4639 15.7652 30.1995 15.9539 29.9775 16.1936C29.7557 16.4336 29.5825 16.7131 29.458 17.033C29.3337 17.3526 29.2717 17.6943 29.2717 18.0586C29.2717 18.4225 29.3337 18.7634 29.458 19.0809C29.5825 19.3983 29.7557 19.6757 29.9775 19.9133C30.1995 20.1508 30.4639 20.3383 30.7701 20.4759C31.0766 20.6138 31.4117 20.6825 31.7757 20.6825C32.0688 20.6825 32.3486 20.6369 32.615 20.5461C32.8815 20.4549 33.1233 20.3273 33.3408 20.163C33.4207 20.1141 33.4872 20.0943 33.5407 20.1031C33.5939 20.1119 33.6473 20.152 33.7005 20.2228L34.8394 21.8612C34.8884 21.959 34.8947 22.0411 34.8595 22.1076C34.824 22.1744 34.7684 22.2297 34.6927 22.2744C34.2756 22.5539 33.826 22.7705 33.3442 22.9236C32.8623 23.0767 32.3553 23.1533 31.8224 23.1533C31.3519 23.1533 30.9001 23.0934 30.4672 22.9734C30.0343 22.8537 29.629 22.6827 29.2517 22.4606C28.8741 22.2388 28.5311 21.9733 28.2227 21.665C27.9141 21.3563 27.6489 21.0145 27.4268 20.6393C27.2047 20.2641 27.034 19.8601 26.914 19.4272C26.794 18.9943 26.7341 18.5425 26.7341 18.0716C26.7341 17.6011 26.794 17.1493 26.914 16.7164C27.034 16.2835 27.2047 15.8773 27.4268 15.4976C27.6489 15.1181 27.9141 14.7727 28.2227 14.4619C28.5311 14.1511 28.8741 13.8859 29.2517 13.6663C29.629 13.4463 30.0343 13.2756 30.4672 13.1535C30.9001 13.0313 31.3519 12.9703 31.8224 12.9703C32.3553 12.9703 32.8581 13.0447 33.3308 13.1933C33.8038 13.3421 34.2489 13.5563 34.6663 13.8361Z" fill="white"/>
<path id="Vector_12" d="M39.3348 13.3764C39.3393 13.3497 39.3539 13.3209 39.3782 13.2899C39.4025 13.2589 39.4326 13.23 39.4681 13.2033C39.5037 13.1765 39.5413 13.1556 39.5814 13.1401C39.6212 13.1246 39.6589 13.1167 39.6944 13.1167H41.3994C41.475 13.1167 41.5394 13.1401 41.5926 13.1866C41.646 13.2334 41.6858 13.2744 41.7126 13.3099L41.8791 13.6894L45.3755 22.7073C45.411 22.796 45.4043 22.868 45.3554 22.9236C45.3068 22.9792 45.2224 23.0068 45.1024 23.0068H43.1912C43.0888 23.0068 43.0101 22.988 42.9545 22.9503C42.8992 22.9123 42.8558 22.8492 42.8248 22.7604C42.7361 22.5341 42.6495 22.3087 42.565 22.0845C42.4806 21.8603 42.3964 21.6349 42.312 21.4086H38.7755C38.691 21.6349 38.6056 21.8603 38.5191 22.0845C38.4325 22.3087 38.3471 22.5341 38.2626 22.7604C38.2049 22.9248 38.0916 23.0068 37.923 23.0068H35.9583C35.8739 23.0068 35.804 22.9846 35.7484 22.9403C35.6928 22.8959 35.6831 22.8291 35.7187 22.7404L39.3348 13.3764ZM40.5469 16.227C40.4628 16.4533 40.3771 16.6976 40.2905 16.9594C40.2039 17.2216 40.1186 17.4856 40.0341 17.752C39.9499 18.0185 39.8643 18.2816 39.7777 18.5413C39.6911 18.8011 39.6057 19.0441 39.5213 19.2707H41.5661L40.5469 16.227Z" fill="white"/>
<path id="Vector_13" d="M44.856 13.409C44.856 13.3205 44.886 13.2495 44.9459 13.1963C45.0057 13.1434 45.0802 13.1167 45.1692 13.1167H52.3351C52.415 13.1167 52.4861 13.141 52.5484 13.1899C52.6104 13.2385 52.6459 13.3114 52.6547 13.409V15.0625C52.6547 15.1421 52.6271 15.2184 52.5715 15.2916C52.5162 15.3645 52.4372 15.4013 52.3351 15.4013H50.0375V22.6936C50.0375 22.7735 50.0087 22.8458 49.9512 22.9102C49.8935 22.9746 49.8182 23.0068 49.7252 23.0068H47.7724C47.6971 23.0068 47.6263 22.9768 47.5598 22.9169C47.4932 22.8568 47.4601 22.7823 47.4601 22.6936V15.4013H45.1692C45.0802 15.4013 45.0057 15.3724 44.9459 15.3147C44.886 15.2573 44.856 15.1731 44.856 15.0625V13.409Z" fill="white"/>
<path id="Vector_14" d="M54.2667 13.4232C54.2667 13.33 54.2922 13.2555 54.343 13.1999C54.394 13.1443 54.466 13.1167 54.559 13.1167H61.1663C61.2641 13.1167 61.3394 13.1456 61.3929 13.203C61.4461 13.2607 61.4728 13.3382 61.4728 13.4354V15.0823C61.4728 15.1576 61.4461 15.2296 61.3929 15.2983C61.3394 15.3669 61.262 15.4013 61.1599 15.4013H56.8441V17.0527H60.1741C60.2585 17.0527 60.3284 17.0728 60.384 17.1129C60.4393 17.1527 60.4672 17.2192 60.4672 17.3124V18.7512C60.4672 18.8132 60.4426 18.8731 60.3937 18.9308C60.3451 18.9885 60.274 19.0174 60.1807 19.0174H56.8441V20.7226H61.3197C61.5193 20.7226 61.6192 20.8243 61.6192 21.0279V22.7015C61.6192 22.7456 61.6016 22.7854 61.5661 22.8209C61.5481 22.9449 61.4573 23.0068 61.293 23.0068H54.559C54.4703 23.0068 54.3995 22.9834 54.3463 22.937C54.2932 22.8902 54.2667 22.8182 54.2667 22.7203V13.4232Z" fill="white"/>
</g>
</g>
</g>
</svg>
